<svg width="32" height="30" viewBox="0 0 32 30" fill="none" xmlns="http://www.w3.org/2000/svg">
<path d="M9.10095 21.2663L14.5368 21.2475L26.4014 9.3225C26.8671 8.85 27.1233 8.2225 27.1233 7.555C27.1233 6.8875 26.8671 6.26 26.4014 5.7875L24.4478 3.805C23.5166 2.86 21.8919 2.865 20.968 3.80125L9.10095 15.7288V21.2663V21.2663ZM22.7061 5.5725L24.6634 7.55125L22.6962 9.52875L20.7426 7.5475L22.7061 5.5725ZM11.5645 16.7713L18.9922 9.305L20.9458 11.2875L13.5194 18.7513L11.5645 18.7575V16.7713Z" fill="white"/>
<path d="M6.50067 26.25H24.7026C26.1367 26.25 27.3029 25.1287 27.3029 23.75V12.915L24.7026 15.415V23.75H10.6065C10.5727 23.75 10.5376 23.7625 10.5038 23.7625C10.4609 23.7625 10.418 23.7512 10.3738 23.75H6.50067V6.25H15.4027L18.003 3.75H6.50067C5.06661 3.75 3.90039 4.87125 3.90039 6.25V23.75C3.90039 25.1287 5.06661 26.25 6.50067 26.25Z" fill="white"/>
</svg>
